<?xml version="1.0" encoding="UTF-8"?>
<svg width="320px" height="120px" viewBox="0 0 320 120" version="1.1" xmlns="http://www.w3.org/2000/svg" xmlns:xlink="http://www.w3.org/1999/xlink">
    <title>C67DAAFF-FD7D-4F8E-BAAF-3D293182542B</title>
    <defs>
        <linearGradient x1="90.2554899%" y1="50%" x2="0%" y2="50%" id="linearGradient-1">
            <stop stop-color="#1E64FF" offset="0%"></stop>
            <stop stop-color="#1E64FF" stop-opacity="0" offset="100%"></stop>
        </linearGradient>
    </defs>
    <g id="05---Landings" stroke="none" stroke-width="1" fill="none" fill-rule="evenodd">
        <g id="004.0.0-ShopList-LP" transform="translate(-556.000000, -235.000000)">
            <g id="Group-4" transform="translate(556.000000, 235.000000)">
                <g id="Group-5" transform="translate(-0.000000, 0.000000)">
                    <g id="Brand/1--Logo/3--Subbrands/1--PWI/1--TR/3--OneLine" transform="translate(-0.000000, -0.000000)">
                        <g id="iyzico-ile-Ode_OneLine_TR" transform="translate(-0.000000, 37.142857)">
                            <g id="Group-3" transform="translate(-0.000000, 5.714286)" fill="url(#linearGradient-1)">
                                <path d="M4.28571429,0 C1.91885714,0 0,1.91847619 0,4.28571429 L0,30 C0,32.3672381 1.91885714,34.2857143 4.28571429,34.2857143 L36.6407619,34.2857143 C38.2388571,34.2857143 39.704,33.3969524 40.4419048,31.9790476 L47.1352381,19.1222857 C47.4521905,18.5127619 47.6133333,17.8464762 47.6190476,17.1794286 L47.6190476,17.1062857 C47.6133333,16.4392381 47.4521905,15.7729524 47.1352381,15.1638095 L40.4419048,2.30666667 C39.704,0.889142857 38.2388571,0 36.6407619,0 L4.28571429,0 Z" id="Fill-1"></path>
                            </g>
                            <g id="Group-21" transform="translate(60.669252, 0.000000)" fill="#1E64FF">
                                <path d="M30.95203,12.1710596 C31.7835933,10.5707359 33.7558349,9.94649802 35.3588254,10.7797222 C36.9623602,11.6145791 37.5846721,13.5887925 36.748483,15.1921096 L36.748483,15.1921096 L21.8426575,43.9557593 C21.28157,45.0311682 20.2061976,45.6630254 19.077492,45.7103738 C18.522663,45.7375856 17.9555891,45.6235683 17.4293315,45.345192 C15.8260689,44.5130562 15.2043012,42.5388428 16.0380413,40.9352537 L16.0380413,40.9352537 L20.2530003,32.7934942 L11.1240359,15.1921096 C10.2902958,13.5887925 10.9164172,11.6145791 12.5177751,10.7797222 C14.1188608,9.94649802 16.094912,10.5707359 16.9251146,12.1710596 L16.9251146,12.1710596 L23.9381642,25.6914962 Z M90.9454539,9.97493431 C94.4817745,9.97493431 97.8061227,11.3518495 100.307615,13.853699 C101.57945,15.1312913 101.57945,17.2012901 100.307615,18.4791545 C99.0284336,19.7529371 96.9579609,19.7529371 95.6823167,18.4791545 C94.4148358,17.2110863 92.7375597,16.5166421 90.9454539,16.5166421 C89.158246,16.5166421 87.4782488,17.2110863 86.2143053,18.4791545 C84.9490013,19.7390591 84.2537643,21.4221066 84.2537643,23.2115522 C84.2537643,24.999365 84.9490013,26.6805077 86.2143053,27.9461268 C87.4782488,29.2065757 89.158246,29.9110882 90.9454539,29.9110882 C92.7375597,29.9110882 94.4148358,29.2065757 95.6823167,27.9461268 C96.9579609,26.6671739 99.0284336,26.6671739 100.307615,27.9461268 C101.57945,29.2229027 101.57945,31.2942621 100.307615,32.5658678 C97.8061227,35.0682615 94.4817745,36.4473537 90.9454539,36.4473537 C87.413487,36.4473537 84.0907714,35.0682615 81.5911837,32.5658678 C79.091324,30.0716376 77.7136392,26.7452717 77.7136392,23.2115522 C77.7136392,19.674023 79.091324,16.3555485 81.5911837,13.853699 C84.0907714,11.3518495 87.413487,9.97493431 90.9454539,9.97493431 Z M117.378253,9.97485267 C124.675656,9.97485267 130.612245,15.9121872 130.612245,23.2114705 C130.612245,30.5093932 124.675656,36.4475441 117.378253,36.4475441 C110.083844,36.4475441 104.148071,30.5093932 104.148071,23.2114705 C104.148071,15.9121872 110.083844,9.97485267 117.378253,9.97485267 Z M3.61087834,10.4118192 C5.4163175,10.4118192 6.87998853,11.875812 6.87998853,13.6766865 L6.87998853,13.6766865 L6.87998853,32.7994808 C6.87998853,34.6066139 5.4163175,36.0667971 3.61087834,36.0667971 C1.80543917,36.0667971 0.341223921,34.6066139 0.341223921,32.7994808 L0.341223921,32.7994808 L0.341223921,13.6766865 C0.341223921,11.875812 1.80543917,10.4118192 3.61087834,10.4118192 Z M56.7426543,10.4099734 C56.8289017,10.40999 56.9130232,10.4100083 56.9948854,10.4100282 L58.457611,10.4108501 C58.4948011,10.4109 58.5286664,10.410952 58.5590737,10.4110062 L58.9625884,10.411346 C59.6729058,10.4328415 60.3780713,10.6836845 60.9635991,11.1769595 C62.3448213,12.3315546 62.5255012,14.3971995 61.3674079,15.7787407 L61.3674079,15.7787407 L49.8272911,29.5283003 L58.8580244,29.5283003 C60.6648241,29.5283003 62.130672,30.9961028 62.130672,32.7994263 C62.130672,34.6068316 60.6648241,36.0667427 58.8580244,36.0667427 L58.8580244,36.0667427 L42.817779,36.0667427 C42.0760115,36.0667427 41.3282577,35.819932 40.7160138,35.3018201 C39.3347916,34.1439596 39.152479,32.083757 40.3141097,30.6973177 L40.3141097,30.6973177 L51.8523217,16.9523841 L44.3092051,16.9523841 C42.501589,16.9523841 41.0400949,15.4845816 41.0400949,13.6769042 C41.0400949,11.8757576 42.501589,10.4117647 44.3092051,10.4117647 L44.3092051,10.4117647 L47.1236603,10.4110133 C47.2211999,10.4109896 47.3204761,10.4109658 47.4213558,10.4109419 L52.2356433,10.4100309 C52.3553133,10.4100154 52.4747219,10.4100007 52.5937361,10.4099867 Z M70.1610531,10.4118192 C71.9700297,10.4118192 73.4301633,11.875812 73.4301633,13.6766865 L73.4301633,13.6766865 L73.4301633,32.7994808 C73.4301633,34.6066139 71.9700297,36.0667971 70.1610531,36.0667971 C68.3572466,36.0667971 66.8957525,34.6066139 66.8957525,32.7994808 L66.8957525,32.7994808 L66.8957525,13.6766865 C66.8957525,11.875812 68.3572466,10.4118192 70.1610531,10.4118192 Z M117.378253,16.5165605 C113.688196,16.5165605 110.688196,19.5191064 110.688196,23.2114705 C110.688196,26.9027462 113.688196,29.9110066 117.378253,29.9110066 C121.070764,29.9110066 124.075113,26.9027462 124.075113,23.2114705 C124.075113,19.5191064 121.070764,16.5165605 117.378253,16.5165605 Z M3.61087834,4.4408921e-15 C5.6043444,4.4408921e-15 7.22311721,1.61801142 7.22311721,3.61399424 C7.22311721,5.60589528 5.6043444,7.2269 3.61087834,7.2269 C1.61741227,7.2269 -4.88498131e-15,5.60589528 -4.88498131e-15,3.61399424 C-4.88498131e-15,1.61801142 1.61741227,4.4408921e-15 3.61087834,4.4408921e-15 Z M70.1610531,4.4408921e-15 C72.1583287,4.4408921e-15 73.7754689,1.61801142 73.7754689,3.61399424 C73.7754689,5.60589528 72.1583287,7.2269 70.1610531,7.2269 C68.1654102,7.2269 66.54827,5.60589528 66.54827,3.61399424 C66.54827,1.61801142 68.1654102,4.4408921e-15 70.1610531,4.4408921e-15 Z" id="Combined-Shape"></path>
                            </g>
                            <path d="M260.962126,8.21588207 C267.629018,8.21588207 274.218859,13.802897 274.218859,21.8780638 C274.218859,29.9532307 267.629018,35.5374139 260.962126,35.5374139 C254.296173,35.5374139 247.706333,29.9532307 247.706333,21.8780638 C247.706333,13.802897 254.296173,8.21588207 260.962126,8.21588207 Z M294.258532,7.94828302 C295.362633,7.94828302 296.315449,8.86765328 296.315449,9.97674984 L296.315449,33.4716625 C296.315449,34.5826469 295.362633,35.5001294 294.258532,35.5001294 C293.153491,35.5001294 292.239201,34.5826469 292.239201,33.4716625 L292.239201,31.4054393 C291.973277,33.1271347 289.610031,35.5369419 285.991397,35.5369419 C281.763864,35.5369419 276.698153,32.2464648 276.698153,25.3228706 C276.698153,18.509714 281.80145,15.14278 285.991397,15.14278 C288.810379,15.14278 291.248799,16.5982923 292.239201,18.8155415 L292.239201,17.2854602 C292.239201,17.1712468 292.239201,17.0173892 292.277727,16.9031758 L292.277727,9.97674984 C292.277727,8.86765328 293.192957,7.94828302 294.258532,7.94828302 Z M205.980686,15.2588812 C206.817923,15.2588812 207.541462,15.9856934 207.541462,16.8663633 L207.541462,33.8539469 C207.541462,34.7742611 206.817923,35.5001294 205.980686,35.5001294 C205.104922,35.5001294 204.380444,34.7742611 204.380444,33.8539469 L204.380444,16.8663633 C204.380444,15.9856934 205.104922,15.2588812 205.980686,15.2588812 Z M213.370365,7.94847181 C214.209482,7.94847181 214.933021,8.67717184 214.933021,9.5181974 L214.933021,33.8541357 C214.933021,34.6961051 214.209482,35.4606738 213.370365,35.4606738 C212.493662,35.4606738 211.771063,34.6961051 211.771063,33.8541357 L211.771063,9.5181974 C211.771063,8.67717184 212.493662,7.94847181 213.370365,7.94847181 Z M228.114393,15.1429688 C232.456565,15.1429688 237.673561,18.5873036 237.673561,24.7869173 C237.673561,26.0092833 236.950022,26.5850696 235.656109,26.5850696 L221.638252,26.5086128 C221.980288,30.7939731 225.256885,32.821496 228.532542,32.821496 C230.284069,32.821496 231.69356,32.3240544 232.949887,31.3659837 C233.52214,30.9846433 233.865116,30.7939731 234.283265,30.7939731 C235.008683,30.7939731 235.464419,31.2914147 235.464419,31.9795265 C235.464419,32.4005112 235.274607,32.821496 234.626241,33.3953945 C233.103051,34.7338616 230.857262,35.4606738 228.45549,35.4606738 C223.57959,35.4606738 218.362594,32.2466536 218.362594,25.3598719 C218.362594,18.4730902 223.771281,15.1429688 228.114393,15.1429688 Z M309.611742,15.14278 C313.953914,15.14278 319.172789,18.5871148 319.172789,24.6706274 C319.172789,26.240353 318.296086,26.8529518 316.658257,26.8529518 L303.897665,26.8133075 C304.315814,30.3718557 307.09721,32.1331954 310.144529,32.1331954 C311.707185,32.1331954 312.7737,31.750911 313.953914,31.0240988 C314.60134,30.679571 315.020429,30.4115 315.553216,30.4115 C316.42992,30.4115 316.963647,31.0240988 316.963647,31.8651244 C316.963647,32.3635099 316.772896,32.898708 315.934718,33.5858759 C314.487641,34.7742611 312.391258,35.4604851 309.991365,35.4604851 C305.041232,35.4604851 299.746244,32.2861091 299.746244,25.3596831 C299.746244,18.4729014 305.26957,15.14278 309.611742,15.14278 Z M286.639763,18.6239273 C283.859307,18.6239273 280.734936,20.8071957 280.734936,25.3228706 C280.734936,29.875358 283.859307,32.0557946 286.639763,32.0557946 C289.230408,32.0557946 292.429952,30.0660282 292.429952,25.3228706 C292.429952,20.5391247 289.230408,18.6239273 286.639763,18.6239273 Z M260.962126,12.119902 C256.314564,12.119902 252.010918,16.0626222 252.010918,21.8780638 C252.010918,27.6935055 256.314564,31.5965814 260.962126,31.5965814 C265.609688,31.5965814 269.914273,27.6935055 269.914273,21.8780638 C269.914273,16.0626222 265.647274,12.119902 260.962126,12.119902 Z M228.114393,17.9378921 C225.294471,17.9378921 221.980288,19.8493139 221.638252,24.1346742 L234.588655,24.1346742 C234.246618,19.8493139 230.970022,17.9378921 228.114393,17.9378921 Z M309.611742,18.6635716 C307.09721,18.6635716 304.240641,20.2710537 303.897665,23.9060587 L315.248766,23.9060587 C314.90673,20.2710537 312.1648,18.6635716 309.611742,18.6635716 Z M205.980686,7.56599868 C206.817923,7.56599868 207.579988,8.29281089 207.579988,9.17348075 C207.579988,10.0532067 206.817923,10.7809628 205.980686,10.7809628 C205.104922,10.7809628 204.342857,10.0532067 204.342857,9.17348075 C204.342857,8.29281089 205.104922,7.56599868 205.980686,7.56599868 Z M265.647274,1.25169959 C266.866014,1.25169959 267.856416,2.2465828 267.856416,3.43496797 C267.856416,4.62052139 266.866014,5.6154046 265.647274,5.6154046 C264.428534,5.6154046 263.438132,4.62052139 263.438132,3.43496797 C263.438132,2.2465828 264.428534,1.25169959 265.647274,1.25169959 Z M256.277917,1.25169959 C257.495718,1.25169959 258.48518,2.2465828 258.48518,3.43496797 C258.48518,4.62052139 257.495718,5.6154046 256.277917,5.6154046 C255.058238,5.6154046 254.067835,4.62052139 254.067835,3.43496797 C254.067835,2.2465828 255.058238,1.25169959 256.277917,1.25169959 Z" id="Combined-Shape" fill="#495057"></path>
                        </g>
                    </g>
                </g>
            </g>
        </g>
    </g>
</svg>